<svg xmlns="http://www.w3.org/2000/svg">
  <symbol id="loading" fill="none" viewBox="0 0 24 24">
    <circle style="opacity: 0.25;" cx="12" cy="12" r="10" stroke="currentColor" stroke-width="4"></circle>
    <path style="opacity: 0.75;" fill="currentColor"
      d="M4 12a8 8 0 018-8V0C5.373 0 0 5.373 0 12h4zm2 5.291A7.962 7.962 0 014 12H0c0 3.042 1.135 5.824 3 7.938l3-2.647z"></path>
  </symbol>
  <symbol id="person" viewBox="0 -960 960 960"
    fill="currentColor">
    <path
      d="M480-480q-66 0-113-47t-47-113q0-66 47-113t113-47q66 0 113 47t47 113q0 66-47 113t-113 47ZM160-160v-112q0-34 17.5-62.5T224-378q62-31 126-46.5T480-440q66 0 130 15.5T736-378q29 15 46.5 43.5T800-272v112H160Zm80-80h480v-32q0-11-5.5-20T700-306q-54-27-109-40.5T480-360q-56 0-111 13.5T260-306q-9 5-14.5 14t-5.5 20v32Zm240-320q33 0 56.5-23.5T560-640q0-33-23.5-56.5T480-720q-33 0-56.5 23.5T400-640q0 33 23.5 56.5T480-560Zm0-80Zm0 400Z" />
  </symbol>
  <symbol id="click-here" viewBox="0 0 512 512">
    <g>
      <path
        d="m422.762 507.605-87.518-87.503-42.422 42.422c-3.662 3.662-8.979 5.171-14.048 3.999a14.982 14.982 0 0 1-10.781-9.858l-84.858-254.561a14.995 14.995 0 0 1 3.618-15.352c3.999-3.999 9.961-5.464 15.352-3.618l254.561 84.858a14.982 14.982 0 0 1 9.858 10.781 15.015 15.015 0 0 1-3.999 14.048l-42.422 42.422 87.503 87.517c5.859 5.859 5.859 15.352 0 21.211l-63.633 63.633c-5.86 5.861-15.352 5.861-21.211.001zM195 120c-8.291 0-15-6.709-15-15V15c0-8.291 6.709-15 15-15s15 6.709 15 15v90c0 8.291-6.709 15-15 15zM120.762 141.973 57.114 78.325c-5.859-5.859-5.859-15.352 0-21.211s15.352-5.859 21.211 0l63.647 63.647c5.859 5.859 5.859 15.352 0 21.211-5.859 5.86-15.351 5.86-21.21.001zM57.114 332.886c-5.859-5.859-5.859-15.352 0-21.211l63.647-63.647c5.859-5.859 15.352-5.859 21.211 0s5.859 15.352 0 21.211l-63.647 63.647c-5.859 5.859-15.351 5.859-21.211 0zM248.027 141.973c-5.859-5.859-5.859-15.352 0-21.211l63.647-63.647c5.859-5.859 15.352-5.859 21.211 0s5.859 15.352 0 21.211l-63.647 63.647c-5.859 5.859-15.351 5.859-21.211 0zM105 210H15c-8.291 0-15-6.709-15-15s6.709-15 15-15h90c8.291 0 15 6.709 15 15s-6.709 15-15 15z"
        fill="currentColor" opacity="1" data-original="currentColor" class=""></path>
    </g>
  </symbol>
</svg>